<?xml version="1.0" standalone="no"?>
<!DOCTYPE svg PUBLIC "-//W3C//DTD SVG 20010904//EN"
 "http://www.w3.org/TR/2001/REC-SVG-20010904/DTD/svg10.dtd">
<svg version="1.0" xmlns="http://www.w3.org/2000/svg"
 width="776.000000pt" height="776.000000pt" viewBox="0 0 776.000000 776.000000"
 preserveAspectRatio="xMidYMid meet">
<metadata>
Created by potrace 1.14, written by Peter Selinger 2001-2017
</metadata>
<g transform="translate(0.000000,776.000000) scale(0.100000,-0.100000)"
fill="#000000" stroke="none">
<path d="M876 7183 c-1 -1 -30 -5 -65 -8 -35 -3 -91 -15 -125 -26 -58 -20
-165 -68 -176 -79 -3 -3 -25 -21 -50 -40 -120 -92 -209 -232 -238 -373 -9 -43
-9 -4383 0 -4422 19 -83 59 -173 106 -235 46 -62 166 -170 188 -170 4 0 15 -6
23 -14 21 -18 143 -62 209 -75 29 -6 109 -11 177 -11 93 0 125 -3 125 -12 1
-7 2 -67 4 -133 3 -116 23 -222 48 -252 6 -7 7 -13 4 -13 -4 0 2 -13 13 -29
12 -16 21 -32 21 -36 0 -8 39 -58 79 -100 43 -46 101 -96 101 -89 0 4 8 0 18
-9 25 -22 112 -67 131 -67 10 0 21 -4 27 -9 5 -6 23 -13 39 -16 17 -3 44 -9
60 -13 17 -3 90 -6 162 -7 l133 0 1 -30 c0 -16 1 -67 1 -111 0 -189 57 -326
189 -455 104 -101 233 -166 372 -186 23 -4 526 -6 1117 -6 1052 0 1233 3 1390
28 25 3 63 8 85 10 22 2 40 4 40 5 0 2 22 6 67 14 21 3 57 11 80 16 24 6 54
13 68 15 14 2 35 7 48 10 12 3 31 7 42 9 48 11 262 79 305 96 138 58 215 87
215 82 0 -4 4 -2 8 3 4 6 43 28 87 49 44 21 82 42 85 45 3 3 23 14 45 25 45
20 284 176 309 201 9 9 16 14 16 10 0 -4 6 0 14 7 7 8 33 30 56 49 87 70 231
206 308 292 91 103 237 302 299 412 26 44 151 293 152 300 1 3 7 20 15 39 19
46 86 244 89 264 1 10 6 23 10 30 5 6 6 12 3 12 -3 0 -1 11 4 26 6 14 12 37
15 52 6 35 12 61 19 92 3 14 8 43 11 65 3 22 8 60 12 85 4 25 7 57 8 73 0 15
2 27 5 27 10 0 15 432 5 525 -2 28 -6 73 -8 100 -5 51 -20 144 -37 225 -5 25
-12 56 -14 70 -3 14 -9 40 -15 58 -5 18 -10 34 -11 37 0 3 -2 10 -4 17 -2 7
-11 38 -19 68 -42 152 -138 374 -230 530 -18 30 -41 70 -52 89 -11 18 -30 46
-42 61 -13 15 -23 31 -23 34 0 3 -6 14 -14 23 -8 10 -45 56 -82 103 -65 83
-289 311 -373 380 -67 55 -273 201 -306 217 -17 8 -61 57 -102 111 -90 122
-118 154 -223 262 -81 84 -226 213 -285 255 -16 11 -33 25 -39 30 -24 22 -166
115 -176 115 -5 0 -10 5 -10 10 0 6 -5 10 -11 10 -14 0 -26 14 -81 90 -25 36
-55 76 -67 90 -11 14 -35 43 -53 64 -61 73 -233 242 -318 313 -103 85 -298
223 -317 223 -7 0 -13 3 -13 8 0 4 -21 18 -47 32 -27 13 -50 27 -53 30 -10 12
-212 110 -225 110 -8 0 -15 5 -15 10 0 6 -8 10 -17 10 -9 0 -35 8 -57 19 -40
18 -70 31 -91 37 -5 2 -46 16 -90 32 -76 27 -242 75 -295 86 -14 3 -56 13 -95
21 -38 9 -86 18 -105 21 -19 3 -48 8 -65 11 -16 3 -43 6 -60 8 -62 8 -131 16
-160 20 -88 12 -457 18 -1333 19 -536 0 -975 0 -976 -1z"/>
</g>
</svg>
