<?xml version="1.0" encoding="utf-8"?>
<!-- Generator: Adobe Illustrator 25.3.1, SVG Export Plug-In . SVG Version: 6.00 Build 0)  -->
<svg version="1.1" id="Layer_1" xmlns="http://www.w3.org/2000/svg" x="0px" y="0px"
     viewBox="0 0 2480 2670.8" style="enable-background:new 0 0 2480 2670.8;" xml:space="preserve">
<style type="text/css">
	.st0{fill:#FF9F6B;}
	.st1{fill:#FF7D11;}
	.st2{fill:#FD886D;}
	.st3{fill:#FE6E42;}
	.st4{fill:#F95611;}
	.st5{fill:url(#SVGID_1_);}
</style>
    <g>
	<path class="st0" d="M320.1,1914.2v146.7c0,145.3,104.7,228.8,231,228.8h87.1v-375.6H320.1V1914.2z"/>
        <path class="st1" d="M2161.7,1328.1c0-150.7-30-288.4-84.6-409.4c-74-49.5-156.2-88.9-244.8-117.1c6.9,48.7,10.5,99,10.5,150.9
		c0,572.1-428.1,961.7-985.5,961.7H638.1v375.6h538C1733.6,2289.8,2161.7,1900.2,2161.7,1328.1z"/>
        <path class="st2" d="M551.1,375.6h625.2c220.5,0,420.7,60,582.2,167.8C1607.3,207.4,1267.3,0,857.4,0H232.2
		C105.9,0,1.2,92.8,1.2,238.1v1447.3c0,145.3,104.7,228.8,231,228.8H320V613.7C320.1,468.4,424.8,375.6,551.1,375.6z"/>
        <path class="st3" d="M638.2,988.6c0-145.3,104.7-238.1,231-238.1h625.2c119.6,0,233.3,17.7,338,51.1
		c-13.1-92.5-38.3-178.9-73.9-258.2c-161.5-107.8-361.8-167.8-582.2-167.8H551.1c-126.3,0-231,92.8-231,238.1v1300.5h318.1
		L638.2,988.6L638.2,988.6z"/>
        <path class="st4" d="M869.2,750.5c-126.3,0-231,92.8-231,238.1v925.7h219.2c557.4,0,985.5-389.7,985.5-961.7
		c0-51.9-3.6-102.3-10.5-150.9c-104.8-33.4-218.4-51.1-338-51.1L869.2,750.5L869.2,750.5z"/>

        <linearGradient id="SVGID_1_" gradientUnits="userSpaceOnUse" x1="638.3" y1="877.1401" x2="2480" y2="877.1401"
                        gradientTransform="matrix(1 0 0 -1 0 2668.6899)">
		<stop offset="0" style="stop-color:#FFB738"/>
            <stop offset="1" style="stop-color:#FFA300"/>
	</linearGradient>
        <path class="st5" d="M2077.2,918.6c54.5,121,84.6,258.7,84.6,409.4c0,572.1-428.1,961.7-985.5,961.7h-538v146
		c0,145.3,104.7,228.8,231,228.8h625.2c557.4,0,985.5-389.7,985.5-961.7C2479.9,1359.3,2323.7,1083.3,2077.2,918.6z"/>
        <path class="st0" d="M2077.2,918.6c-69.9-155.1-180-282.8-318.7-375.3c35.7,79.2,60.8,165.6,73.9,258.2
		C1921,829.8,2003.1,869.2,2077.2,918.6z"/>
</g>
</svg>
