<?xml version="1.0" encoding="UTF-8" standalone="no"?>
<svg
    id="Layer_1"
    data-name="Layer 1"
    viewBox="0 0 93.77 97"
    version="1.1"
    xmlns="http://www.w3.org/2000/svg"
>
    <defs
        id="defs1">
        <style
            id="style1">.cls-1{fill:#93f5a2;}.cls-2{fill:#29d6bd;}.cls-3{fill:#02b2de;}
        </style>
    </defs>
    <path
        class="cls-1"
        d="m 54.57604,26.904228 c 21.220438,0 37.503338,13.660997 37.503338,33.91625 0,20.255253 -16.2829,34.244935 -37.503338,34.244935 H 30.810024 A 8.3608965,7.8268273 0 0 1 22.03218,86.848274 V 35.388425 a 8.6461768,8.0938842 0 0 1 8.777844,-8.484197 z"
        id="path1"
        style="stroke-width:2.1232"/>
    <path
        class="cls-2"
        d="m 44.064571,17.0642 c 21.198492,0 37.50334,13.660998 37.50334,33.916251 0,20.255254 -16.304848,34.244937 -37.50334,34.244937 H 20.298556 a 8.3608965,7.8268273 0 0 1 -8.777844,-8.217142 v -51.54202 a 8.6461768,8.0938842 0 0 1 8.777844,-8.484199 z"
        id="path2"
        style="stroke-width:2.1232"/>
    <path
        class="cls-3"
        d="m 33.618933,7.2241723 c 21.198496,0 37.481397,13.6609977 37.481397,33.9162507 0,20.255255 -16.348737,34.244938 -37.481397,34.244938 H 9.787087 A 8.3608965,7.8268273 0 0 1 1.0092427,67.168219 V 15.708369 A 8.6461768,8.0938842 0 0 1 9.787087,7.2241723 Z"
        id="path3"
        style="stroke-width:2.1232"/>
</svg>
