<?xml version="1.0" standalone="no"?>
<!DOCTYPE svg PUBLIC "-//W3C//DTD SVG 20010904//EN"
    "http://www.w3.org/TR/2001/REC-SVG-20010904/DTD/svg10.dtd">
<svg version="1.0" xmlns="http://www.w3.org/2000/svg"
     width="2671.000000pt" height="2671.000000pt" viewBox="0 0 2671.000000 2671.000000"
     preserveAspectRatio="xMidYMid meet">
    <metadata>
        Created by potrace 1.14, written by Peter Selinger 2001-2017
    </metadata>
    <g transform="translate(0.000000,2671.000000) scale(0.100000,-0.100000)"
       fill="#000000" stroke="none">
        <path d="M3099 26706 c-2 -2 -38 -6 -79 -10 -79 -7 -84 -7 -220 -32 -508 -91
-994 -379 -1320 -781 -286 -352 -464 -810 -507 -1298 -10 -117 -10 -14874 0
-14980 9 -95 16 -151 22 -185 3 -14 8 -41 11 -60 27 -169 103 -405 187 -580
223 -466 621 -834 1120 -1034 161 -65 380 -124 539 -146 42 -6 86 -13 98 -15
63 -12 297 -18 723 -18 l477 -1 1 -785 c0 -432 2 -808 4 -836 13 -171 21 -246
40 -340 21 -103 25 -127 31 -160 3 -16 11 -36 16 -42 6 -7 8 -13 5 -13 -11 0
73 -233 121 -335 76 -163 168 -310 282 -450 76 -92 246 -255 344 -329 173
-130 421 -262 603 -322 27 -8 55 -18 63 -21 8 -3 20 -7 25 -8 6 -2 53 -14 105
-29 81 -22 229 -49 385 -71 76 -10 302 -15 730 -15 l430 0 0 -818 c0 -717 4
-898 20 -1002 70 -453 196 -766 438 -1085 139 -182 394 -406 582 -511 347
-193 638 -283 1035 -321 106 -10 6765 -9 6990 1 91 4 187 9 215 11 27 2 93 6
145 10 52 3 111 8 130 10 19 2 64 7 100 10 36 3 81 8 100 10 19 2 64 7 100 11
36 3 73 8 83 10 10 2 46 6 80 9 34 3 73 8 87 10 40 7 81 13 140 20 30 4 84 13
120 20 36 7 90 17 120 21 30 4 57 8 60 9 3 1 39 7 80 14 41 7 89 16 105 21 17
5 46 11 65 13 41 6 348 73 370 81 8 4 44 12 80 20 239 52 803 225 1105 339
162 61 360 140 415 165 25 11 79 35 120 52 347 148 806 389 1170 613 141 87
470 304 480 317 3 3 43 32 90 65 47 32 87 61 90 65 3 3 41 33 85 65 73 53 265
205 291 230 6 5 30 26 54 45 219 175 747 686 920 890 11 14 31 36 43 50 141
154 459 556 567 715 25 37 50 72 55 78 31 36 275 411 345 532 180 307 412 757
515 1000 81 189 93 216 125 300 4 11 15 36 23 55 83 197 242 679 323 982 45
170 121 487 138 578 3 14 12 59 20 100 22 110 26 131 32 170 3 19 7 42 9 50 2
8 7 35 10 60 3 25 10 68 15 95 12 64 40 268 54 395 4 36 9 76 11 90 2 14 6 54
10 90 3 36 8 81 10 100 3 19 7 78 11 130 3 52 8 111 9 130 27 368 27 1167 1
1485 -2 22 -7 81 -11 130 -3 50 -8 106 -10 125 -13 120 -18 168 -20 195 -2 32
-10 94 -26 217 -15 118 -17 128 -28 198 -6 36 -13 83 -16 105 -10 63 -34 202
-55 305 -10 52 -21 109 -24 125 -21 119 -115 497 -176 710 -80 279 -247 767
-315 920 -8 17 -26 59 -40 95 -98 239 -269 595 -406 845 -348 637 -783 1243
-1262 1760 -134 144 -385 394 -523 520 -60 55 -111 102 -114 105 -3 3 -39 35
-80 70 -41 35 -77 66 -80 69 -3 3 -21 18 -40 33 -19 14 -44 34 -55 45 -15 14
-270 213 -360 281 -109 82 -239 173 -317 223 -27 17 -48 35 -48 40 0 6 -5 7
-12 3 -6 -4 -8 -3 -5 3 7 10 -54 158 -72 176 -6 6 -11 15 -11 19 0 9 -125 261
-168 340 -16 29 -46 85 -67 123 -285 525 -755 1183 -1165 1629 -293 320 -658
671 -925 888 -232 189 -504 393 -700 525 l-60 41 -84 178 c-46 99 -87 184 -92
189 -4 6 -35 64 -69 130 -221 427 -605 1021 -859 1331 -15 17 -33 40 -41 50
-28 36 -144 179 -150 184 -3 3 -18 21 -34 40 -37 45 -137 158 -202 230 -28 30
-63 69 -78 85 -89 99 -363 369 -511 503 -39 35 -83 76 -100 91 -132 120 -420
352 -630 506 -146 108 -585 405 -599 405 -3 0 -24 13 -48 29 -204 136 -798
447 -1124 589 -482 208 -885 353 -1361 487 -146 41 -488 127 -553 139 -14 2
-65 13 -115 24 -49 12 -110 24 -135 27 -24 4 -47 8 -50 10 -4 2 -29 7 -56 11
-27 3 -52 8 -55 10 -3 2 -34 8 -70 13 -35 6 -74 13 -85 15 -22 5 -36 7 -169
26 -44 7 -89 14 -100 16 -11 2 -44 6 -73 10 -29 3 -62 7 -73 9 -11 2 -47 7
-80 10 -33 4 -69 8 -79 10 -10 2 -52 6 -93 10 -41 3 -85 8 -98 10 -13 2 -64 7
-114 11 -49 3 -106 8 -125 9 -19 2 -89 7 -155 11 -66 4 -140 9 -165 12 -54 6
-7004 14 -7011 8z"/>
    </g>
</svg>
